<?xml version="1.0" encoding="utf-8"?>
<!-- Generator: Adobe Illustrator 23.0.3, SVG Export Plug-In . SVG Version: 6.00 Build 0)  -->
<svg version="1.1" id="Layer_1" xmlns="http://www.w3.org/2000/svg" xmlns:xlink="http://www.w3.org/1999/xlink" x="0px" y="0px"
	 viewBox="0 0 166.9 63.5" style="enable-background:new 0 0 166.9 63.5;" xml:space="preserve">
<style type="text/css">
	.st0{fill:#BD00FF;}
	.st1{fill:#008FFF;}
	.st2{enable-background:new    ;}
</style>
<title>Acc_Logo_Full_Black_RGB</title>
<polygon class="st0" points="97.2,6.5 106.6,10.2 97.2,13.7 97.2,18.7 113.3,12.2 113.3,8.2 97.2,1.7 "/>
<path d="M10.9,25.1c-4.5,0-7.8,2-8.1,6.2h5v-0.1c0.1-1.4,1.4-2.4,2.8-2.3c1.9,0,2.8,1.1,2.8,3v0.9h-2.3c-4.9,0-8.9,1.5-8.9,6.2v0.2
	c0,3.8,2.8,5.5,6.2,5.5l0,0c2.1,0.1,4-0.9,5.2-2.5v2.2h5.1V31.8C18.6,27,15.3,25.1,10.9,25.1z M9.8,41c-1.8,0-2.6-0.9-2.6-2.2v-0.2
	c0-1.7,1.3-2.4,3.9-2.4h2.1V38l0,0C13.3,40,11.6,41,9.8,41z"/>
<path d="M30.7,40.8c-2.5,0-3.8-1.7-3.8-5.5v-0.6c0-3.7,1.5-5.5,3.8-5.5c1.8,0,2.8,1.2,3.1,3h5c-0.4-4.9-4-7.1-8.2-7.1
	c-5,0-9,3.4-9,9.8v0.2c0,6.4,3.8,9.6,9,9.6l0,0c5.1,0,8-3.1,8.4-7.3h-4.8C33.8,39.5,32.5,40.8,30.7,40.8z"/>
<path d="M50.2,40.8c-2.5,0-3.8-1.7-3.8-5.5v-0.6c0-3.7,1.5-5.5,3.8-5.5c1.8,0,2.8,1.2,3.1,3h5c-0.4-4.9-4-7.1-8.2-7.1
	c-5,0-9,3.4-9,9.8v0.2c0,6.4,3.8,9.6,9,9.6l0,0c5.1,0,8-3.1,8.3-7.3h-4.7C53.4,39.5,52,40.8,50.2,40.8z"/>
<path d="M69.9,40.9c-2.3,0-3.7-1.3-3.9-4.7h12.2V34c0-6.2-3.9-8.9-8.6-8.9c-5.1,0-9,3.5-9,9.8v0.4c0,6.3,3.7,9.5,9.1,9.5l0,0
	c4.9,0,7.9-2.7,8.4-6.3h-4.9C73,40,71.5,41.1,69.9,40.9z M69.6,28.7c2.1,0,3.4,1.2,3.5,4h-7l0,0l0,0l0,0
	C66.5,29.7,68,28.8,69.6,28.7z"/>
<polygon class="st1" points="66.1,32.7 66.1,32.7 66,32.7 "/>
<path d="M92.4,25.1c-2.4-0.1-4.6,1.1-5.7,3.2v-2.8h-5.2v18.8h5.2V32.8c0-0.2,0-0.3,0-0.5c0.1-1.7,1.6-3.1,3.3-3c1.9,0,2.8,1,2.8,3.2
	v11.8h5.3V31.7C98.1,27.1,95.8,25.1,92.4,25.1z"/>
<path d="M107.9,38.3v-8.9h3.6v-3.9h-3.6v-5.7l-5.2,2.2v3.5h-2.3v3.9h2.2v9.5c0,3.8,1.9,5.7,6,5.7c1,0,2-0.1,3-0.4v-4.1
	c-0.6,0.2-1.2,0.3-1.8,0.3C108.6,40.4,107.9,39.7,107.9,38.3z"/>
<path d="M126,37.2c0,0.2,0,0.3,0,0.5c-0.1,1.7-1.6,3.1-3.3,3c-1.9,0-2.7-1-2.7-3.2v-12h-5.3v12.7c0,4.4,2.5,6.5,5.9,6.5
	c2.3,0.1,4.4-1.1,5.5-3.2v2.8h5.3V25.5h-5.3L126,37.2L126,37.2z"/>
<path d="M140.4,28.9v-3.5h-5.2v18.8h5.2v-9.7c0-3.1,2.1-4.2,5.7-4.2v-5.2C143.5,25.1,141.2,26.6,140.4,28.9z"/>
<path d="M165.3,33.9c0-6.2-3.9-8.8-8.6-8.8c-5.1,0-9,3.5-9,9.8v0.4c0,6.3,3.7,9.5,9.1,9.5l0,0c4.9,0,7.8-2.7,8.4-6.3h-4.9
	c-0.4,1.6-1.9,2.6-3.5,2.5c-2.3,0-3.7-1.3-3.9-4.7h12.2v-2.4H165.3z M153.1,32.7L153.1,32.7L153.1,32.7c0.4-3.1,1.9-4,3.6-4
	c2.1,0,3.4,1.2,3.5,4H153.1L153.1,32.7z"/>
<path class="st1" d="M153.1,32.7L153.1,32.7L153.1,32.7L153.1,32.7z"/>
<g class="st2">
	<path d="M30.3,47.8L34.6,59h-2.1l-1.1-3H27l-1.1,3h-2l4.3-11.2H30.3z M30.9,54.5l-1.7-4.8h0l-1.7,4.8H30.9z"/>
	<path d="M40.6,47.8c0.8,0,1.4,0.1,1.9,0.3s0.9,0.5,1.2,0.9c0.3,0.3,0.5,0.7,0.6,1.1s0.1,0.8,0.1,1.1s0,0.7-0.1,1.1
		c-0.1,0.4-0.3,0.8-0.6,1.1c-0.3,0.3-0.7,0.6-1.2,0.9c-0.5,0.2-1.2,0.3-1.9,0.3h-3V59h-2V47.8H40.6z M40.5,53.1c0.2,0,0.4,0,0.7-0.1
		c0.2-0.1,0.4-0.2,0.6-0.3c0.2-0.1,0.4-0.3,0.5-0.6s0.2-0.5,0.2-0.9c0-0.4-0.1-0.7-0.2-0.9c-0.1-0.2-0.2-0.4-0.4-0.6
		c-0.2-0.1-0.4-0.2-0.6-0.3s-0.5-0.1-0.7-0.1h-2.9v3.7H40.5z"/>
	<path d="M48.1,47.8V59h-2V47.8H48.1z"/>
	<path d="M56.4,56.4c0.1,0.3,0.4,0.6,0.6,0.7c0.3,0.2,0.6,0.3,0.9,0.4c0.3,0.1,0.7,0.1,1.1,0.1c0.4,0,0.8,0,1.1-0.1
		c0.3-0.1,0.5-0.2,0.7-0.4c0.2-0.2,0.3-0.3,0.4-0.5c0.1-0.2,0.1-0.4,0.1-0.6c0-0.4-0.1-0.7-0.3-1s-0.4-0.3-0.6-0.4
		c-0.4-0.1-0.9-0.3-1.4-0.4c-0.5-0.1-1.2-0.3-2-0.5c-0.5-0.1-0.9-0.3-1.2-0.5c-0.3-0.2-0.6-0.4-0.8-0.7c-0.2-0.3-0.3-0.5-0.4-0.8
		c-0.1-0.3-0.1-0.6-0.1-0.9c0-0.6,0.1-1.1,0.4-1.5c0.2-0.4,0.5-0.8,0.9-1s0.8-0.5,1.3-0.6c0.5-0.1,1-0.2,1.5-0.2
		c0.6,0,1.1,0.1,1.7,0.2c0.5,0.2,1,0.4,1.4,0.7c0.4,0.3,0.7,0.7,0.9,1.1c0.2,0.4,0.3,1,0.3,1.5h-2c-0.1-0.7-0.3-1.2-0.7-1.5
		c-0.4-0.3-1-0.4-1.7-0.4c-0.2,0-0.5,0-0.7,0.1c-0.2,0-0.5,0.1-0.7,0.2s-0.4,0.3-0.5,0.4c-0.1,0.2-0.2,0.4-0.2,0.7
		c0,0.4,0.1,0.7,0.4,0.9c0.2,0.2,0.6,0.4,1,0.5c0,0,0.2,0.1,0.5,0.1c0.3,0.1,0.6,0.2,1,0.3c0.4,0.1,0.7,0.2,1,0.3
		c0.3,0.1,0.6,0.2,0.7,0.2c0.4,0.1,0.7,0.3,1,0.5s0.5,0.4,0.7,0.7c0.2,0.3,0.3,0.5,0.4,0.8c0.1,0.3,0.1,0.6,0.1,0.9
		c0,0.6-0.1,1.2-0.4,1.6c-0.3,0.4-0.6,0.8-1,1.1c-0.4,0.3-0.9,0.5-1.4,0.6c-0.5,0.1-1.1,0.2-1.6,0.2c-0.6,0-1.2-0.1-1.8-0.2
		c-0.6-0.2-1.1-0.4-1.5-0.7c-0.4-0.3-0.8-0.7-1-1.3c-0.3-0.5-0.4-1.1-0.4-1.8h2C56.2,55.7,56.3,56.1,56.4,56.4z"/>
	<path d="M70.2,59v-1.1h0c-0.2,0.4-0.5,0.7-1,1c-0.4,0.2-0.9,0.4-1.3,0.4c-1.1,0-1.8-0.3-2.3-0.8c-0.5-0.5-0.7-1.3-0.7-2.4v-5.2h1.8
		v5c0,0.7,0.1,1.2,0.4,1.5c0.3,0.3,0.7,0.4,1.1,0.4c0.4,0,0.7-0.1,0.9-0.2s0.5-0.3,0.6-0.5c0.2-0.2,0.3-0.4,0.3-0.7
		c0.1-0.3,0.1-0.6,0.1-0.9v-4.7H72V59H70.2z"/>
	<path d="M75.6,50.9V52h0c0.3-0.5,0.6-0.8,1.1-1s0.9-0.3,1.5-0.3c0.6,0,1.2,0.1,1.7,0.3c0.5,0.2,0.9,0.5,1.2,0.9
		c0.3,0.4,0.5,0.9,0.7,1.4s0.2,1.1,0.2,1.7c0,0.5-0.1,1.1-0.2,1.6c-0.1,0.5-0.4,1-0.6,1.4c-0.3,0.4-0.7,0.7-1.1,0.9
		c-0.4,0.2-1,0.4-1.6,0.4c-0.3,0-0.5,0-0.8-0.1c-0.3,0-0.5-0.1-0.8-0.2c-0.2-0.1-0.5-0.2-0.7-0.4c-0.2-0.2-0.4-0.4-0.5-0.6h0V62
		h-1.8V50.9H75.6z M80,53.9c-0.1-0.3-0.2-0.7-0.4-0.9c-0.2-0.3-0.4-0.5-0.7-0.6c-0.3-0.2-0.6-0.2-1-0.2c-0.8,0-1.3,0.3-1.7,0.8
		c-0.4,0.5-0.6,1.2-0.6,2.1c0,0.4,0,0.8,0.1,1.1c0.1,0.4,0.2,0.7,0.4,0.9c0.2,0.3,0.4,0.5,0.7,0.6c0.3,0.1,0.6,0.2,1,0.2
		c0.4,0,0.8-0.1,1-0.3c0.3-0.2,0.5-0.4,0.7-0.7c0.2-0.3,0.3-0.6,0.4-0.9s0.1-0.7,0.1-1C80.1,54.6,80.1,54.2,80,53.9z"/>
	<path d="M85.2,50.9V52h0c0.3-0.5,0.6-0.8,1.1-1c0.5-0.2,0.9-0.3,1.5-0.3c0.6,0,1.2,0.1,1.7,0.3c0.5,0.2,0.9,0.5,1.2,0.9
		c0.3,0.4,0.5,0.9,0.7,1.4s0.2,1.1,0.2,1.7c0,0.5-0.1,1.1-0.2,1.6c-0.1,0.5-0.4,1-0.6,1.4c-0.3,0.4-0.7,0.7-1.1,0.9
		c-0.4,0.2-1,0.4-1.6,0.4c-0.3,0-0.5,0-0.8-0.1c-0.3,0-0.5-0.1-0.8-0.2c-0.2-0.1-0.5-0.2-0.7-0.4s-0.4-0.4-0.5-0.6h0V62h-1.8V50.9
		H85.2z M89.6,53.9c-0.1-0.3-0.2-0.7-0.4-0.9s-0.4-0.5-0.7-0.6s-0.6-0.2-1-0.2c-0.8,0-1.3,0.3-1.7,0.8c-0.4,0.5-0.6,1.2-0.6,2.1
		c0,0.4,0,0.8,0.1,1.1c0.1,0.4,0.2,0.7,0.4,0.9s0.4,0.5,0.7,0.6c0.3,0.1,0.6,0.2,1,0.2c0.4,0,0.8-0.1,1-0.3c0.3-0.2,0.5-0.4,0.7-0.7
		c0.2-0.3,0.3-0.6,0.4-0.9c0.1-0.3,0.1-0.7,0.1-1C89.7,54.6,89.7,54.2,89.6,53.9z"/>
	<path d="M95,58.9c-0.5-0.2-0.9-0.5-1.3-0.9c-0.4-0.4-0.6-0.8-0.8-1.4s-0.3-1.1-0.3-1.7c0-0.6,0.1-1.2,0.3-1.7
		c0.2-0.5,0.5-1,0.8-1.4c0.4-0.4,0.8-0.7,1.3-0.9c0.5-0.2,1.1-0.3,1.7-0.3c0.6,0,1.2,0.1,1.7,0.3s0.9,0.5,1.3,0.9
		c0.4,0.4,0.6,0.8,0.8,1.4c0.2,0.5,0.3,1.1,0.3,1.7c0,0.6-0.1,1.2-0.3,1.7c-0.2,0.5-0.5,1-0.8,1.4c-0.4,0.4-0.8,0.7-1.3,0.9
		s-1.1,0.3-1.7,0.3C96.1,59.2,95.5,59.1,95,58.9z M97.8,57.6c0.3-0.2,0.5-0.4,0.7-0.7s0.3-0.6,0.4-0.9c0.1-0.3,0.1-0.7,0.1-1
		c0-0.3,0-0.7-0.1-1c-0.1-0.3-0.2-0.7-0.4-0.9s-0.4-0.5-0.7-0.7c-0.3-0.2-0.6-0.3-1-0.3c-0.4,0-0.7,0.1-1,0.3
		c-0.3,0.2-0.5,0.4-0.7,0.7s-0.3,0.6-0.4,0.9c-0.1,0.3-0.1,0.7-0.1,1c0,0.4,0,0.7,0.1,1c0.1,0.3,0.2,0.6,0.4,0.9s0.4,0.5,0.7,0.7
		c0.3,0.2,0.6,0.3,1,0.3C97.2,57.8,97.5,57.7,97.8,57.6z"/>
	<path d="M104,50.9v1.6h0c0.1-0.2,0.2-0.4,0.3-0.6c0.2-0.2,0.3-0.4,0.6-0.6s0.5-0.3,0.7-0.4s0.5-0.2,0.8-0.2c0.2,0,0.4,0,0.4,0
		c0.1,0,0.2,0,0.2,0v1.7c-0.1,0-0.3,0-0.4-0.1c-0.1,0-0.3,0-0.4,0c-0.3,0-0.6,0.1-0.9,0.2c-0.3,0.1-0.5,0.3-0.7,0.5
		c-0.2,0.2-0.4,0.5-0.5,0.9s-0.2,0.7-0.2,1.2V59h-1.8v-8.1H104z"/>
	<path d="M108.4,50.9v-2.4h1.8v2.4h1.6v1.3h-1.6v4.3c0,0.2,0,0.4,0,0.5c0,0.1,0.1,0.3,0.1,0.3c0.1,0.1,0.1,0.2,0.3,0.2
		c0.1,0,0.3,0.1,0.5,0.1c0.1,0,0.3,0,0.4,0c0.1,0,0.3,0,0.4-0.1V59c-0.2,0-0.4,0-0.6,0.1c-0.2,0-0.4,0-0.6,0c-0.5,0-0.9,0-1.1-0.1
		c-0.3-0.1-0.5-0.2-0.7-0.4s-0.3-0.4-0.3-0.7c-0.1-0.3-0.1-0.6-0.1-0.9v-4.8h-1.4v-1.3H108.4z"/>
	<path d="M125,50.5c-0.1-0.3-0.3-0.5-0.6-0.7s-0.5-0.4-0.8-0.5c-0.3-0.1-0.7-0.2-1.1-0.2c-0.6,0-1.1,0.1-1.5,0.4
		c-0.4,0.2-0.8,0.6-1.1,1s-0.5,0.9-0.6,1.4s-0.2,1-0.2,1.6c0,0.5,0.1,1.1,0.2,1.6s0.3,1,0.6,1.4s0.6,0.7,1.1,1
		c0.4,0.2,1,0.4,1.5,0.4c0.4,0,0.8-0.1,1.2-0.2c0.3-0.2,0.6-0.4,0.9-0.6s0.4-0.6,0.6-0.9c0.1-0.4,0.2-0.7,0.3-1.1h1.9
		c0,0.7-0.2,1.3-0.4,1.8c-0.2,0.6-0.6,1-1,1.4s-0.9,0.7-1.5,0.9c-0.6,0.2-1.2,0.3-1.9,0.3c-0.8,0-1.6-0.2-2.3-0.5
		c-0.7-0.3-1.2-0.7-1.7-1.3s-0.8-1.2-1.1-1.9c-0.2-0.7-0.4-1.5-0.4-2.3c0-0.8,0.1-1.6,0.4-2.3s0.6-1.3,1.1-1.9s1-1,1.7-1.3
		c0.7-0.3,1.4-0.5,2.3-0.5c0.6,0,1.2,0.1,1.8,0.3c0.6,0.2,1,0.4,1.5,0.8c0.4,0.3,0.8,0.7,1,1.2c0.3,0.5,0.4,1,0.5,1.6h-2
		C125.2,51,125.1,50.7,125,50.5z"/>
	<path d="M130.4,56.3c0.1,0.3,0.2,0.5,0.4,0.8c0.2,0.2,0.4,0.4,0.7,0.5s0.6,0.2,1,0.2c0.5,0,0.9-0.1,1.3-0.3c0.3-0.2,0.6-0.6,0.7-1
		h1.7c-0.1,0.4-0.3,0.8-0.5,1.2s-0.5,0.6-0.8,0.9c-0.3,0.2-0.7,0.4-1.1,0.5c-0.4,0.1-0.8,0.2-1.3,0.2c-0.6,0-1.2-0.1-1.7-0.3
		c-0.5-0.2-0.9-0.5-1.3-0.9s-0.6-0.8-0.8-1.4c-0.2-0.5-0.3-1.1-0.3-1.7c0-0.6,0.1-1.1,0.3-1.6c0.2-0.5,0.4-1,0.8-1.4
		c0.3-0.4,0.8-0.7,1.2-0.9c0.5-0.2,1-0.3,1.6-0.3c0.6,0,1.2,0.1,1.7,0.4c0.5,0.3,0.9,0.6,1.3,1.1c0.3,0.4,0.6,0.9,0.7,1.5
		c0.2,0.6,0.2,1.2,0.1,1.8h-6C130.2,55.7,130.3,56,130.4,56.3z M134.2,53.4c-0.1-0.3-0.2-0.5-0.4-0.7c-0.2-0.2-0.4-0.4-0.6-0.5
		c-0.2-0.1-0.5-0.2-0.8-0.2c-0.3,0-0.6,0.1-0.9,0.2c-0.3,0.1-0.5,0.3-0.7,0.5c-0.2,0.2-0.3,0.4-0.4,0.7c-0.1,0.3-0.2,0.5-0.2,0.8
		h4.2C134.4,53.9,134.3,53.7,134.2,53.4z"/>
	<path d="M139.3,50.9v1.2l0,0c0.3-0.5,0.6-0.8,1.1-1.1c0.4-0.3,0.9-0.4,1.5-0.4c0.9,0,1.6,0.2,2.1,0.7c0.5,0.5,0.8,1.2,0.8,2.1V59
		h-1.8v-5.1c0-0.6-0.2-1.1-0.4-1.4c-0.3-0.3-0.6-0.4-1.2-0.4c-0.3,0-0.6,0.1-0.8,0.2c-0.2,0.1-0.4,0.3-0.6,0.5
		c-0.2,0.2-0.3,0.4-0.4,0.7c-0.1,0.3-0.1,0.5-0.1,0.8V59h-1.8v-8.1H139.3z"/>
	<path d="M147.1,50.9v-2.4h1.8v2.4h1.6v1.3h-1.6v4.3c0,0.2,0,0.4,0,0.5c0,0.1,0.1,0.3,0.1,0.3c0.1,0.1,0.1,0.2,0.3,0.2
		c0.1,0,0.3,0.1,0.5,0.1c0.1,0,0.3,0,0.4,0c0.1,0,0.3,0,0.4-0.1V59c-0.2,0-0.4,0-0.6,0.1c-0.2,0-0.4,0-0.6,0c-0.5,0-0.9,0-1.1-0.1
		c-0.3-0.1-0.5-0.2-0.7-0.4s-0.3-0.4-0.3-0.7c-0.1-0.3-0.1-0.6-0.1-0.9v-4.8h-1.4v-1.3H147.1z"/>
	<path d="M153.3,56.3c0.1,0.3,0.2,0.5,0.4,0.8c0.2,0.2,0.4,0.4,0.7,0.5s0.6,0.2,1,0.2c0.5,0,0.9-0.1,1.3-0.3s0.6-0.6,0.7-1h1.7
		c-0.1,0.4-0.3,0.8-0.5,1.2s-0.5,0.6-0.8,0.9c-0.3,0.2-0.7,0.4-1.1,0.5c-0.4,0.1-0.8,0.2-1.3,0.2c-0.6,0-1.2-0.1-1.7-0.3
		c-0.5-0.2-0.9-0.5-1.2-0.9c-0.3-0.4-0.6-0.8-0.8-1.4c-0.2-0.5-0.3-1.1-0.3-1.7c0-0.6,0.1-1.1,0.3-1.6s0.4-1,0.8-1.4
		s0.8-0.7,1.2-0.9c0.5-0.2,1-0.3,1.6-0.3c0.6,0,1.2,0.1,1.7,0.4c0.5,0.3,0.9,0.6,1.3,1.1c0.3,0.4,0.6,0.9,0.7,1.5
		c0.2,0.6,0.2,1.2,0.1,1.8h-6C153.2,55.7,153.2,56,153.3,56.3z M157.2,53.4c-0.1-0.3-0.2-0.5-0.4-0.7c-0.2-0.2-0.4-0.4-0.6-0.5
		c-0.2-0.1-0.5-0.2-0.8-0.2c-0.3,0-0.6,0.1-0.9,0.2c-0.3,0.1-0.5,0.3-0.7,0.5c-0.2,0.2-0.3,0.4-0.4,0.7c-0.1,0.3-0.2,0.5-0.2,0.8
		h4.2C157.4,53.9,157.3,53.7,157.2,53.4z"/>
	<path d="M162.2,50.9v1.6h0c0.1-0.2,0.2-0.4,0.3-0.6s0.3-0.4,0.5-0.6s0.5-0.3,0.7-0.4c0.3-0.1,0.5-0.2,0.8-0.2c0.2,0,0.4,0,0.4,0
		c0.1,0,0.2,0,0.2,0v1.7c-0.1,0-0.3,0-0.4-0.1c-0.1,0-0.3,0-0.4,0c-0.3,0-0.6,0.1-0.9,0.2c-0.3,0.1-0.5,0.3-0.7,0.5
		c-0.2,0.2-0.4,0.5-0.5,0.9s-0.2,0.7-0.2,1.2V59h-1.8v-8.1H162.2z"/>
</g>
</svg>
