<?xml version="1.0" encoding="utf-8"?>
<!-- Generator: Adobe Illustrator 20.1.0, SVG Export Plug-In . SVG Version: 6.00 Build 0)  -->
<svg version="1.1" id="Layer_1" xmlns="http://www.w3.org/2000/svg" xmlns:xlink="http://www.w3.org/1999/xlink" x="0px" y="0px"
	 viewBox="0 0 161 201.2" style="enable-background:new 0 0 161 201.2;" xml:space="preserve">
<path d="M155.1,84.4l-0.1-7.4l-0.2-3.6c0-1.4-0.1-2.8-0.4-4.1c-1.1-5.5-5.1-10-10.4-11.8c-1.2-0.4-2.4-0.6-3.7-0.8
	c-0.6,0-1.3,0-1.8,0h-1.5l-5.6,0.2c-3.4,0.2-6.5,0.3-9.2,0.5L122,34.6l-0.1-3.9v-1.9v-1v-1.1c-0.7-8.1-7-14.6-15-15.6
	c-0.7-0.1-1.5,0-2.1,0.5c-0.5,0.3-0.8,0.9-0.7,1.5c0.2,1.1,1,2,2.1,2.2c3.6,0.7,6.7,3,8.5,6.2c1,1.7,1.5,3.7,1.5,5.6v1.7v1.9
	l-0.1,3.9l-0.6,35l-0.2,19.7v1.3c0,0.4,0,0.9,0,1.2c0,0.6-0.1,1.3-0.2,1.9c-0.3,1.3-0.8,2.5-1.5,3.6c-1.4,2.3-3.6,3.9-6.2,4.7
	c-0.6,0.2-1.3,0.3-1.9,0.4c-0.3,0-0.7,0-1,0l-0.4,0.1h-0.7H98H86.9l-22.7-0.1c-1.1,0-2.1,0.4-2.9,1.2l0,0l-18.3,17.9
	c0-5,0-10.1,0-15.2l0,0c0-2.3-1.9-4.2-4.2-4.2H25.7c-0.5,0-0.9,0-1.4-0.1c-3.6-0.4-6.8-2.7-8.4-6c-0.4-0.8-0.7-1.6-0.9-2.5
	c-0.1-0.4-0.1-0.9-0.1-1.3v-0.7c0-0.2,0-0.6,0-0.9v-7.4l-0.2-14.6l-0.2-28.5v-6.9v-3.4v-1.7v-1.3c0.5-5.1,4.4-9.3,9.5-10.1
	c1.9-0.2,3.9-0.2,5.8-0.2l12.3-0.2L65,16.1c14.3-0.3,26.8-0.6,36.7-0.9c1.2,0,2.3-0.9,2.3-2.2c0,0,0,0,0,0c-0.2-1.1-1.2-2-2.4-1.9
	c-9.9-0.4-22.4-0.7-36.7-0.9L42.1,9.7L29.8,9.5c-2.3-0.1-4.6-0.1-6.8,0.1c-8.5,1.1-15.1,7.9-16,16.4c0,0.7-0.1,1.4-0.1,2.1v1.7v3.4
	v6.9L6.6,68.7v14.6v7.4c0,0.3,0,0.6,0,1v1.2c0.1,0.8,0.2,1.6,0.3,2.4c0.3,1.6,0.8,3.1,1.5,4.5c2.8,5.9,8.4,10,14.9,10.8
	c0.8,0.1,1.6,0.1,2.4,0.2h8.9c0,7.1,0,14.2,0,21.1l0,0c0,2.3,1.9,4.2,4.2,4.2c1.1,0,2.2-0.5,3-1.2l24-24.2h6.2
	c-0.2,2.6-0.3,5.6-0.5,8.8c0,0.5,0,0.9,0,1.5c0,0.6,0,1.2,0.1,1.7c0.1,1.2,0.4,2.4,0.8,3.5c0.9,2.5,2.3,4.7,4.3,6.4
	c2.1,1.9,4.7,3.2,7.5,3.7c0.7,0.1,1.4,0.2,2.1,0.2h1h0.9l3.6,0.1l13.8,0.3c6.3,6.5,13,13.3,20.2,20.7c1.6,1.6,4.2,1.7,5.8,0.1
	c0.8-0.8,1.2-1.8,1.2-2.9l0,0l0.1-17.3h5.3c0.3,0,0.9,0,1.3,0c0.9-0.1,1.9-0.2,2.8-0.5c1.8-0.4,3.6-1.2,5.2-2.2
	c3.2-2,5.6-5.1,6.8-8.6c0.6-1.8,0.9-3.6,0.9-5.5v-4.2C155.4,105.2,155.3,94.4,155.1,84.4z M147.7,76.9l-0.1,7.4
	c-0.2,10.1-0.3,20.8-0.4,31.9v4.1c0,0.9-0.2,1.9-0.5,2.8c-0.6,1.8-1.9,3.3-3.5,4.3c-0.8,0.5-1.7,0.9-2.6,1.1
	c-0.5,0.1-0.9,0.2-1.4,0.2c-0.3,0-0.4,0-0.8,0h-9.6c-2.3,0-4.2,1.9-4.2,4.2c0,0,0,0,0,0v11.6c-5.1-5-10-9.8-14.7-14.3l-0.1-0.1
	c-0.7-0.7-1.6-1-2.6-1l-15.5,0.3l-3.6,0.1h-0.9h-0.8c-0.4,0-0.9,0-1.3-0.1c-1.7-0.2-3.3-0.9-4.6-1.9c-1.3-1-2.3-2.3-3-3.8
	c-0.3-0.7-0.6-1.4-0.7-2.2c-0.1-0.4-0.1-0.7-0.2-1.1c0-0.4,0-0.9,0-1.3c-0.1-3.2-0.3-6.2-0.5-8.8h10.6H98h5.4h0.6h0.8
	c0.6,0,1.1-0.1,1.7-0.2c1.1-0.2,2.2-0.4,3.3-0.8c6.4-2.1,11.2-7.5,12.5-14.1c0.2-1.1,0.3-2.1,0.3-3.2c0-0.6,0-0.9,0-1.4v-1.3
	l-0.3-19.9l-0.1-8c2.7,0.2,5.8,0.3,9.2,0.5l5.6,0.2h1.5l1.2,0.1c0.8,0.1,1.5,0.3,2.2,0.6c3.1,1.3,5.3,4,5.8,7.3
	C147.9,72.6,147.9,74.8,147.7,76.9z"/>
<path d="M71.1,61.7c0.2-0.1,0.5-0.3,0.8-0.4l0.4-0.2l0.7-0.3c1-0.5,1.9-1.1,2.7-1.7c5.6-4.5,7.8-12.1,5.3-18.8
	c-1.6-4.5-5.1-8.1-9.5-9.9c-2.1-0.9-4.3-1.3-6.6-1.2c-2.1,0-4.2,0.5-6.2,1.3c-3.4,1.5-6.1,4.1-7.8,7.4c-1.2,2.4-1.7,5.1-1.3,7.8
	c0,0.3,1,0.5,2.2,0.5c1.2,0,1.9-0.2,1.9-0.4c0.4-1.8,1.2-3.4,2.4-4.8c1.4-1.7,3.2-3,5.3-3.6c2.3-0.7,4.7-0.5,6.8,0.5
	c2.2,1.1,3.9,3,4.8,5.3c0.9,2.3,0.7,4.9-0.3,7.1c-0.5,1.1-1.2,2-2.1,2.9c-0.4,0.4-0.9,0.8-1.4,1.1l-0.4,0.2l-0.6,0.4
	c-0.4,0.3-0.8,0.5-1.3,0.8c-1.7,1.2-3.1,2.8-4.1,4.6c-0.8,1.7-1.2,3.6-1.1,5.5c0.2,2.3,0.4,4.5,0.9,6.7c0,0.3,1.1,0.5,2.3,0.4
	c1.2,0,1.9-0.2,2-0.4c0.4-1.8,0.6-4,1-6.5c0.1-0.9,0.4-1.7,1-2.4C69.5,62.8,70.2,62.2,71.1,61.7z"/>
<circle cx="64.9" cy="82.3" r="3.7"/>
</svg>
