<?xml version="1.0" encoding="utf-8"?>
<!-- Generator: Adobe Illustrator 20.1.0, SVG Export Plug-In . SVG Version: 6.00 Build 0)  -->
<svg version="1.1" id="Layer_1" xmlns="http://www.w3.org/2000/svg" xmlns:xlink="http://www.w3.org/1999/xlink" x="0px" y="0px"
	 viewBox="0 0 161 201.2" style="enable-background:new 0 0 161 201.2;" xml:space="preserve">
<g>
	<path d="M80,0c5,0,9,4,9,8v64h64c4,0,8,4,8,8c0,5-4,9-8,9H89v64c0,4-4,8-9,8c-4,0-8-4-8-8V89H8c-4,0-8-4-8-9c0-4,4-8,8-8h64V8
		C72,4,76,0,80,0z"/>
</g>
</svg>
