<?xml version="1.0" encoding="utf-8"?>
<!-- Generator: Adobe Illustrator 20.1.0, SVG Export Plug-In . SVG Version: 6.00 Build 0)  -->
<svg version="1.1" id="Layer_1" xmlns="http://www.w3.org/2000/svg" xmlns:xlink="http://www.w3.org/1999/xlink" x="0px" y="0px"
	 viewBox="0 0 161 201.2" style="enable-background:new 0 0 161 201.2;" xml:space="preserve">
<g>
	<path d="M80.9,27.2c3,0,5.5,2.4,5.5,4.9v39h39c2.4,0,4.9,2.4,4.9,4.9c0,3-2.4,5.5-4.9,5.5h-39v39c0,2.4-2.4,4.9-5.5,4.9
		c-2.4,0-4.9-2.4-4.9-4.9v-39H37c-2.4,0-4.9-2.4-4.9-5.5c0-2.4,2.4-4.9,4.9-4.9h39V32C76,29.6,78.4,27.2,80.9,27.2z"/>
</g>
</svg>
