<?xml version="1.0" encoding="utf-8"?>
<!-- Generator: Adobe Illustrator 20.1.0, SVG Export Plug-In . SVG Version: 6.00 Build 0)  -->
<svg version="1.1" id="Layer_1" xmlns="http://www.w3.org/2000/svg" xmlns:xlink="http://www.w3.org/1999/xlink" x="0px" y="0px"
	 viewBox="0 0 161 201.2" style="enable-background:new 0 0 161 201.2;" xml:space="preserve">
<path d="M128.5,79.9l-0.1-5l-0.1-2.4c0-0.9-0.1-1.9-0.2-2.8c-0.8-3.7-3.4-6.7-7-8c-0.8-0.3-1.6-0.4-2.5-0.5c-0.4,0-0.8,0-1.2,0h-1
	l-3.7,0.2c-2.3,0.1-4.4,0.2-6.2,0.3l-0.2-15.3l-0.1-2.6v-1.3v-0.6v-0.7c-0.5-5.4-4.7-9.8-10.1-10.5c-0.5-0.1-1,0-1.4,0.3
	c-0.3,0.2-0.5,0.6-0.5,1c0.1,0.7,0.7,1.3,1.4,1.4c2.4,0.5,4.5,2,5.7,4.1c0.7,1.2,1,2.5,1,3.8v1.1v1.3l-0.1,2.6L101.9,70l-0.2,13.3
	v0.9c0,0.3,0,0.6,0,0.8c0,0.4-0.1,0.9-0.2,1.3c-0.2,0.9-0.6,1.7-1,2.4c-1,1.5-2.4,2.6-4.1,3.2C96,91.9,95.6,92,95.1,92
	c-0.2,0-0.4,0-0.7,0l-0.3,0.1h-0.5H90h-7.4L67.4,92c-0.7,0-1.4,0.3-1.9,0.8l0,0l-12.3,12.1c0-3.4,0-6.8,0-10.2l0,0
	c0-1.6-1.3-2.8-2.8-2.8h-8.9c-0.3,0-0.6,0-0.9-0.1c-2.4-0.3-4.6-1.8-5.6-4c-0.3-0.5-0.5-1.1-0.6-1.7c0-0.3-0.1-0.6-0.1-0.9v-0.5
	c0-0.1,0-0.4,0-0.6v-5l-0.1-9.8L34,50.2v-4.7v-2.3v-1.1v-0.9c0.3-3.4,3-6.2,6.4-6.8c1.3-0.1,2.6-0.2,3.9-0.1l8.3-0.1L67.9,34
	c9.6-0.2,18-0.4,24.7-0.6c0.8,0,1.5-0.6,1.6-1.5c0,0,0,0,0,0c-0.1-0.8-0.8-1.3-1.6-1.3c-6.7-0.2-15.1-0.5-24.7-0.6l-15.3-0.2
	l-8.3-0.1c-1.5-0.1-3.1,0-4.6,0.1c-5.7,0.8-10.1,5.3-10.8,11c0,0.5-0.1,1-0.1,1.4v1.1v2.3v4.7l-0.2,19.2v9.8v5c0,0.2,0,0.4,0,0.7
	v0.8c0,0.5,0.1,1.1,0.2,1.6c0.2,1,0.6,2.1,1,3c1.9,4,5.7,6.7,10,7.2c0.5,0.1,1.1,0.1,1.6,0.1h6c0,4.8,0,9.5,0,14.2l0,0
	c0,1.6,1.3,2.8,2.8,2.8c0.7,0,1.5-0.3,2-0.8l16.2-16.3h4.1c-0.1,1.8-0.2,3.7-0.3,5.9c0,0.3,0,0.6,0,1c0,0.4,0,0.8,0.1,1.2
	c0.1,0.8,0.3,1.6,0.5,2.4c0.6,1.7,1.6,3.1,2.9,4.3c1.4,1.3,3.2,2.1,5,2.5c0.5,0.1,1,0.1,1.4,0.1h0.7h0.6l2.5,0.1l9.3,0.2
	c4.2,4.4,8.7,9,13.6,13.9c1.1,1.1,2.8,1.1,3.9,0c0.5-0.5,0.8-1.2,0.8-2l0,0l0.1-11.6h3.6c0.2,0,0.6,0,0.9,0c0.6-0.1,1.2-0.2,1.9-0.3
	c1.2-0.3,2.4-0.8,3.5-1.5c2.1-1.4,3.7-3.4,4.6-5.8c0.4-1.2,0.6-2.4,0.6-3.7v-2.8C128.7,93.9,128.6,86.7,128.5,79.9z M123.5,74.9
	l-0.1,5c-0.1,6.8-0.2,14-0.3,21.5v2.8c0,0.6-0.1,1.3-0.3,1.9c-0.4,1.2-1.2,2.2-2.3,2.9c-0.5,0.3-1.1,0.6-1.7,0.7
	c-0.3,0.1-0.6,0.1-0.9,0.1c-0.2,0-0.3,0-0.5,0h-6.4c-1.6,0-2.8,1.3-2.8,2.8c0,0,0,0,0,0v7.8c-3.4-3.4-6.7-6.6-9.9-9.6l0-0.1
	c-0.5-0.4-1.1-0.7-1.7-0.7L86,110.3l-2.5,0.1h-0.6h-0.5c-0.3,0-0.6,0-0.9-0.1c-1.1-0.1-2.2-0.6-3.1-1.3c-0.9-0.7-1.5-1.5-2-2.5
	c-0.2-0.5-0.4-1-0.5-1.5c-0.1-0.2-0.1-0.5-0.1-0.8c0-0.2,0-0.6,0-0.9c-0.1-2.2-0.2-4.1-0.3-5.9h7.1h7.4h3.7h0.4h0.6
	c0.4,0,0.8,0,1.1-0.1c0.8-0.1,1.5-0.3,2.2-0.5c4.3-1.4,7.5-5.1,8.4-9.5c0.1-0.7,0.2-1.4,0.2-2.1c0-0.4,0-0.6,0-0.9v-0.9L106.5,70
	l-0.1-5.4c1.8,0.1,3.9,0.2,6.2,0.3l3.7,0.2h1l0.8,0.1c0.5,0.1,1,0.2,1.5,0.4c2.1,0.8,3.6,2.7,3.9,4.9
	C123.6,72,123.6,73.4,123.5,74.9z"/>
<path d="M72,64.7c0.2-0.1,0.3-0.2,0.5-0.3l0.3-0.1l0.5-0.2c0.6-0.3,1.3-0.7,1.8-1.2c3.8-3,5.2-8.1,3.6-12.7c-1.1-3-3.4-5.4-6.4-6.7
	c-1.4-0.6-2.9-0.9-4.4-0.8c-1.4,0-2.8,0.3-4.1,0.9c-2.3,1-4.1,2.7-5.2,5c-0.8,1.6-1.1,3.4-0.9,5.2c0,0.2,0.7,0.3,1.5,0.3
	s1.3-0.1,1.3-0.2c0.3-1.2,0.8-2.3,1.6-3.2c0.9-1.1,2.1-2,3.5-2.4c1.5-0.5,3.2-0.3,4.6,0.4c1.5,0.7,2.7,2,3.2,3.6
	c0.6,1.6,0.5,3.3-0.2,4.8c-0.3,0.7-0.8,1.4-1.4,1.9c-0.3,0.3-0.6,0.5-0.9,0.7l-0.2,0.2L70.1,60c-0.3,0.2-0.6,0.4-0.8,0.6
	c-1.2,0.8-2.1,1.9-2.8,3.1c-0.6,1.1-0.8,2.4-0.7,3.7c0.1,1.5,0.3,3,0.6,4.5c0,0.2,0.7,0.3,1.5,0.3c0.8,0,1.3-0.1,1.3-0.3
	c0.3-1.2,0.4-2.7,0.7-4.4c0.1-0.6,0.3-1.1,0.6-1.6C70.9,65.4,71.4,65,72,64.7z"/>
<circle cx="67.8" cy="78.5" r="2.5"/>
</svg>
